<svg width="32" height="29" viewBox="0 0 32 29" fill="none" xmlns="http://www.w3.org/2000/svg">
<path d="M25.4188 2.53173C25.7328 2.03021 26.3797 1.8521 26.9047 2.13333C27.4297 2.41455 27.6453 3.04731 27.4016 3.58632L20.975 17.8726C21.0781 17.9804 21.1766 18.0929 21.2703 18.2054L25.8266 15.6415C26.3187 15.365 26.9328 15.4962 27.275 15.9415C27.6172 16.3868 27.5703 17.0195 27.1719 17.4179L23.0938 21.4957H19.7422C19.1234 19.7474 17.4594 18.496 15.5 18.496C13.5406 18.496 11.8719 19.7474 11.2578 21.4957H7.52188L3.98281 19.049C3.52812 18.735 3.36875 18.1304 3.6125 17.6289C3.85625 17.1273 4.42812 16.8836 4.95781 17.0477L9.51406 18.4725C9.65469 18.2897 9.8 18.1116 9.95469 17.9429L7.03438 13.0777C6.74844 12.6043 6.85156 11.995 7.27344 11.6388C7.69531 11.2825 8.31406 11.2872 8.73125 11.6434L13.5312 15.7634C13.6016 15.7446 13.6719 15.7259 13.7422 15.7118L14.3797 9.02335C14.4359 8.44684 14.9188 8.00625 15.5 8.00625C16.0812 8.00625 16.5641 8.44684 16.6203 9.02335L17.2531 15.6743L25.4188 2.53173ZM5 23.0003H27.5C28.3297 23.0003 29 23.6705 29 24.5001C29 25.3297 28.3297 26 27.5 26H3.5C2.67031 26 2 25.3297 2 24.5001C2 23.6705 2.67031 23.0003 3.5 23.0003H5ZM15.5 2.00209C16.1234 2.00209 16.625 2.50361 16.625 3.12699V5.37679C16.625 6.00018 16.1234 6.5017 15.5 6.5017C14.8766 6.5017 14.375 6.00018 14.375 5.37679V3.12699C14.375 2.50361 14.8766 2.00209 15.5 2.00209Z" fill="black"/>
</svg>
